<svg width="26" height="26" viewBox="0 0 26 26" fill="none" xmlns="http://www.w3.org/2000/svg">
<path d="M3.5874 6.3053C6.64575 1.94863 12.4933 0.436221 17.3481 2.73401C22.2068 5.03369 24.6282 10.4677 23.0269 15.525L23.0259 15.524C22.8792 15.9909 22.493 16.34 22.0181 16.4469C21.5435 16.5537 21.044 16.4054 20.7075 16.0524C20.3699 15.698 20.2484 15.1905 20.395 14.7223V14.7213C21.5916 10.9143 19.7179 6.82091 15.9956 5.16077C12.269 3.49899 7.86468 4.80079 5.70361 8.18811C3.5458 11.5706 4.28576 15.9944 7.44287 18.5289C10.5063 20.9879 14.9196 20.9245 17.9038 18.4303L18.188 18.1823C18.4436 17.9353 18.7859 17.7976 19.1411 17.7975C19.4579 17.7975 19.7652 17.9064 20.0093 18.1051L20.1099 18.1959L20.147 18.2321L20.1753 18.275L20.2339 18.3649L23.9175 21.9664L24.0278 22.0729L24.0415 22.1422C24.4638 22.6764 24.4267 23.4484 23.9292 23.9401L23.9272 23.943C23.3926 24.4634 22.5322 24.4634 21.9976 23.943L21.9966 23.942L19.0034 21.0153C14.7887 24.0088 8.96787 23.6797 5.13232 20.1715C1.18504 16.561 0.525833 10.6667 3.5874 6.3053Z" fill="#0D3B66" stroke="#0D3B66"/>
</svg>
